<svg width="70.189453" height="32.000000" viewBox="0 0 70.1895 32" fill="none" xmlns="http://www.w3.org/2000/svg" xmlns:xlink="http://www.w3.org/1999/xlink">
	<desc>
			Created with Pixso.
	</desc>
	<defs>
		<clipPath id="clip128_238">
			<rect id="twitter-brands 1" width="15.892374" height="16.000000" transform="translate(46.685547 8.000000)" fill="white" fill-opacity="0"/>
		</clipPath>
		<clipPath id="clip128_242">
			<rect id="pinterest-p-brands 1" width="11.919281" height="16.000000" transform="translate(9.933594 8.000000)" fill="white" fill-opacity="0"/>
		</clipPath>
	</defs>
	<path id="Rectangle 14" d="M38.7383 0L70.1895 0L70.1895 32L38.7383 32L38.7383 0Z" fill="#FFFFFF" fill-opacity="1.000000" fill-rule="evenodd"/>
	<rect id="twitter-brands 1" width="15.892374" height="16.000000" transform="translate(46.685547 8.000000)" fill="#FFFFFF" fill-opacity="0"/>
	<g clip-path="url(#clip128_238)">
		<path id="Vector" d="M60.9434 12.7402C60.9551 12.8828 60.9551 13.0254 60.9551 13.166C60.9551 17.502 57.6777 22.4961 51.6875 22.4961C49.8418 22.4961 48.127 21.959 46.6855 21.0254C46.9473 21.0547 47.1992 21.0645 47.4727 21.0645C48.9941 21.0645 50.3965 20.5469 51.5156 19.6641C50.084 19.6348 48.8848 18.6895 48.4707 17.3906C48.6719 17.4199 48.873 17.4414 49.0859 17.4414C49.3789 17.4414 49.6699 17.4004 49.9434 17.3301C48.4512 17.0254 47.3301 15.7051 47.3301 14.1113L47.3301 14.0703C47.7637 14.3145 48.2695 14.4668 48.8027 14.4863C47.9258 13.8984 47.3516 12.8926 47.3516 11.7559C47.3516 11.1465 47.5117 10.5879 47.7949 10.1016C49.3984 12.0898 51.8086 13.3906 54.5098 13.5332C54.4609 13.2891 54.4297 13.0352 54.4297 12.7812C54.4297 10.9746 55.8828 9.50195 57.6875 9.50195C58.625 9.50195 59.4727 9.89844 60.0664 10.5371C60.8027 10.3945 61.5098 10.1211 62.1348 9.74609C61.8926 10.5078 61.377 11.1465 60.7031 11.5527C61.3574 11.4824 61.9922 11.2988 62.5781 11.0449C62.1348 11.6953 61.5801 12.2734 60.9434 12.7402Z" fill="#000000" fill-opacity="1.000000" fill-rule="nonzero"/>
	</g>
	<path id="Rectangle 14" d="M0 0L31.4512 0L31.4512 32L0 32L0 0Z" fill="#FFFFFF" fill-opacity="1.000000" fill-rule="evenodd"/>
	<rect id="pinterest-p-brands 1" width="11.919281" height="16.000000" transform="translate(9.933594 8.000000)" fill="#FFFFFF" fill-opacity="0"/>
	<g clip-path="url(#clip128_242)">
		<path id="Vector" d="M16.2656 8.20312C13.0801 8.20312 9.93359 10.3398 9.93359 13.8008C9.93359 16 11.1621 17.25 11.9082 17.25C12.2148 17.25 12.3926 16.3867 12.3926 16.1445C12.3926 15.8535 11.6562 15.2344 11.6562 14.0254C11.6562 11.5117 13.5566 9.73047 16.0137 9.73047C18.1289 9.73047 19.6934 10.9414 19.6934 13.1621C19.6934 14.8223 19.0312 17.9336 16.8887 17.9336C16.1172 17.9336 15.4551 17.3711 15.4551 16.5664C15.4551 15.3848 16.2754 14.2402 16.2754 13.0215C16.2754 10.9531 13.3613 11.3281 13.3613 13.8281C13.3613 14.3535 13.4258 14.9336 13.6582 15.4121C13.2305 17.2695 12.3555 20.0352 12.3555 21.9473C12.3555 22.5371 12.4395 23.1191 12.4941 23.709C12.5996 23.8281 12.5469 23.8164 12.709 23.7559C14.2734 21.5996 14.2168 21.1777 14.9238 18.3555C15.3066 19.0879 16.293 19.4805 17.0762 19.4805C20.373 19.4805 21.8535 16.2461 21.8535 13.332C21.8535 10.2285 19.1895 8.20312 16.2656 8.20312Z" fill="#000000" fill-opacity="1.000000" fill-rule="nonzero"/>
	</g>
</svg>
