<svg width="356.000000" height="49.000000" viewBox="0 0 356 49" fill="none" xmlns="http://www.w3.org/2000/svg" xmlns:xlink="http://www.w3.org/1999/xlink">
	<desc>
			Created with Pixso.
	</desc>
	<defs/>
	<path id="Rounded Rectangle 5" d="M22.2148 0L300.375 0C312.645 0 322.59 10.9688 322.59 24.5C322.59 38.0312 312.645 49 300.375 49L22.2148 49C9.94531 49 0 38.0312 0 24.5C0 10.9688 9.94531 0 22.2148 0Z" fill="#E1E1E1" fill-opacity="1.000000" fill-rule="evenodd"/>
	<path id="Rounded Rectangle 5 copy" d="M256 0L333.885 0C339.75 0 345.375 2.58203 349.523 7.17578C353.67 11.7715 356 18.002 356 24.5C356 30.998 353.67 37.2285 349.523 41.8242C345.375 46.418 339.75 49 333.885 49L256 49L256 0Z" fill="#F16D7F" fill-opacity="1.000000" fill-rule="nonzero"/>
	<path id="Subscribe" d="M295.249 23.523Q294.689 23.831 294.241 24.349L294.241 20.107L292.988 20.107L292.988 30.418L293.793 30.418C293.97 30.418 294.078 30.3293 294.115 30.152L294.178 29.508C294.416 29.83 294.694 30.0797 295.011 30.257C295.333 30.4297 295.727 30.516 296.194 30.516C296.665 30.516 297.09 30.425 297.468 30.243C297.846 30.0563 298.166 29.7973 298.427 29.466C298.693 29.13 298.896 28.7263 299.036 28.255C299.176 27.7837 299.246 27.261 299.246 26.687C299.246 26.1503 299.183 25.6673 299.057 25.238C298.936 24.8087 298.758 24.4447 298.525 24.146C298.292 23.8427 298.007 23.6117 297.671 23.453C297.34 23.2943 296.966 23.215 296.551 23.215C296.061 23.215 295.627 23.3177 295.249 23.523ZM324.288 23.523C323.915 23.7283 323.579 24.0037 323.28 24.349L323.28 20.107L322.027 20.107L322.027 30.418L322.832 30.418C323.009 30.418 323.117 30.3293 323.154 30.152L323.217 29.508C323.455 29.83 323.733 30.0797 324.05 30.257C324.372 30.4297 324.766 30.516 325.233 30.516C325.704 30.516 326.129 30.425 326.507 30.243C326.885 30.0563 327.205 29.7973 327.466 29.466C327.732 29.13 327.935 28.7263 328.075 28.255C328.215 27.7837 328.285 27.261 328.285 26.687C328.285 26.1503 328.222 25.6673 328.096 25.238C327.975 24.8087 327.797 24.4447 327.564 24.146C327.331 23.8427 327.046 23.6117 326.71 23.453C326.379 23.2943 326.005 23.215 325.59 23.215C325.1 23.215 324.666 23.3177 324.288 23.523ZM320.169 21.444C320.22 21.3367 320.246 21.2223 320.246 21.101C320.246 20.9797 320.22 20.8653 320.169 20.758C320.122 20.646 320.057 20.5503 319.973 20.471C319.893 20.387 319.798 20.3217 319.686 20.275C319.578 20.2283 319.464 20.205 319.343 20.205C319.221 20.205 319.107 20.2283 319 20.275C318.897 20.3217 318.806 20.387 318.727 20.471C318.647 20.5503 318.584 20.646 318.538 20.758C318.491 20.8653 318.468 20.9797 318.468 21.101C318.468 21.2223 318.491 21.3367 318.538 21.444C318.584 21.5467 318.647 21.64 318.727 21.724C318.806 21.8033 318.897 21.8663 319 21.913C319.107 21.9597 319.221 21.983 319.343 21.983C319.464 21.983 319.578 21.9597 319.686 21.913C319.798 21.8663 319.893 21.8033 319.973 21.724C320.057 21.64 320.122 21.5467 320.169 21.444ZM283.001 22.116C283.053 22.0787 283.099 22.025 283.141 21.955L283.47 21.311Q283.274 21.1224 283.054 20.9672Q282.686 20.7075 282.253 20.541Q281.566 20.275 280.727 20.275Q279.977 20.275 279.396 20.506C279.014 20.66 278.689 20.8653 278.423 21.122C278.162 21.3787 277.961 21.6727 277.822 22.004C277.686 22.3353 277.618 22.6783 277.618 23.033C277.618 23.4763 277.686 23.8497 277.822 24.153C277.961 24.4517 278.143 24.7013 278.367 24.902C278.591 25.1027 278.848 25.266 279.137 25.392C279.427 25.518 279.721 25.63 280.02 25.728C280.318 25.8213 280.612 25.9147 280.901 26.008C281.191 26.0967 281.447 26.2063 281.672 26.337C281.896 26.4677 282.075 26.631 282.21 26.827C282.35 27.0183 282.421 27.2657 282.421 27.569C282.421 27.8443 282.374 28.094 282.28 28.318C282.187 28.542 282.052 28.7357 281.874 28.899C281.702 29.0577 281.49 29.1813 281.237 29.27C280.986 29.3587 280.698 29.403 280.376 29.403C280.12 29.403 279.889 29.3797 279.684 29.333C279.478 29.2817 279.294 29.2187 279.13 29.144C278.972 29.0693 278.829 28.9877 278.703 28.899C278.577 28.8103 278.465 28.7287 278.367 28.654Q278.22 28.542 278.102 28.472C278.027 28.4207 277.959 28.395 277.898 28.395C277.833 28.395 277.772 28.4137 277.716 28.451C277.665 28.4837 277.621 28.5257 277.583 28.577L277.191 29.221C277.569 29.6223 278.025 29.942 278.556 30.18Q279.354 30.53 280.335 30.53C280.866 30.53 281.34 30.4483 281.755 30.285C282.176 30.1217 282.528 29.8977 282.812 29.613C283.102 29.3283 283.321 28.9947 283.47 28.612C283.62 28.2247 283.694 27.8117 283.694 27.373C283.694 26.9577 283.624 26.6077 283.484 26.323C283.349 26.0383 283.167 25.798 282.938 25.602C282.714 25.406 282.458 25.245 282.168 25.119C281.884 24.9883 281.59 24.8717 281.286 24.769C280.988 24.6663 280.694 24.5683 280.404 24.475C280.12 24.377 279.863 24.2627 279.634 24.132C279.41 24.0013 279.228 23.845 279.089 23.663C278.953 23.4763 278.885 23.243 278.885 22.963C278.885 22.7437 278.925 22.5407 279.004 22.354C279.084 22.1627 279.201 21.997 279.354 21.857C279.513 21.717 279.707 21.6073 279.935 21.528C280.169 21.444 280.437 21.402 280.74 21.402C281.062 21.402 281.335 21.4417 281.559 21.521C281.788 21.6003 281.982 21.689 282.141 21.787Q282.385 21.927 282.547 22.046C282.654 22.1253 282.747 22.165 282.826 22.165C282.896 22.165 282.955 22.1487 283.001 22.116ZM315.573 23.614C315.246 23.8847 314.971 24.2627 314.747 24.748L314.663 23.67C314.644 23.544 314.609 23.4553 314.558 23.404C314.507 23.3527 314.413 23.327 314.278 23.327L313.564 23.327L313.564 30.418L314.817 30.418L314.817 25.938C314.906 25.6953 315.004 25.4807 315.111 25.294C315.223 25.1027 315.347 24.944 315.482 24.818C315.622 24.6873 315.778 24.5893 315.951 24.524C316.128 24.4587 316.329 24.426 316.553 24.426C316.712 24.426 316.854 24.44 316.98 24.468C317.106 24.496 317.202 24.51 317.267 24.51C317.379 24.51 317.449 24.4517 317.477 24.335L317.568 23.404C317.461 23.334 317.337 23.2827 317.197 23.25C317.062 23.2173 316.919 23.201 316.77 23.201C316.299 23.201 315.9 23.3387 315.573 23.614ZM304.693 24.65C304.81 24.65 304.896 24.5987 304.952 24.496L305.232 24.041C304.961 23.7843 304.639 23.5837 304.266 23.439C303.897 23.2897 303.48 23.215 303.013 23.215C302.612 23.215 302.255 23.271 301.942 23.383C301.629 23.495 301.366 23.6467 301.151 23.838C300.936 24.0247 300.773 24.244 300.661 24.496C300.549 24.7433 300.493 25.0023 300.493 25.273C300.493 25.5763 300.544 25.8353 300.647 26.05C300.754 26.26 300.894 26.4373 301.067 26.582C301.24 26.7267 301.436 26.848 301.655 26.946C301.879 27.0393 302.105 27.1233 302.334 27.198C302.567 27.2727 302.794 27.345 303.013 27.415C303.237 27.4803 303.435 27.5597 303.608 27.653C303.781 27.7417 303.918 27.8513 304.021 27.982C304.128 28.108 304.182 28.269 304.182 28.465C304.182 28.6237 304.152 28.773 304.091 28.913C304.035 29.053 303.946 29.1767 303.825 29.284C303.704 29.3913 303.552 29.4777 303.37 29.543C303.188 29.6037 302.976 29.634 302.733 29.634C302.448 29.634 302.21 29.6013 302.019 29.536C301.828 29.4707 301.664 29.3983 301.529 29.319C301.398 29.2397 301.286 29.1673 301.193 29.102C301.1 29.0367 301.011 29.004 300.927 29.004C300.848 29.004 300.782 29.0203 300.731 29.053C300.68 29.0857 300.635 29.1323 300.598 29.193L300.304 29.669C300.584 29.921 300.925 30.1287 301.326 30.292C301.727 30.4507 302.175 30.53 302.67 30.53Q303.321 30.53 303.818 30.355Q304.315 30.18 304.658 29.879C304.887 29.6737 305.059 29.4333 305.176 29.158C305.293 28.878 305.351 28.5747 305.351 28.248C305.351 27.9633 305.297 27.7207 305.19 27.52C305.087 27.3147 304.95 27.142 304.777 27.002C304.604 26.862 304.408 26.7453 304.189 26.652Q303.86 26.512 303.51 26.4C303.281 26.3207 303.057 26.2483 302.838 26.183C302.619 26.113 302.423 26.0337 302.25 25.945C302.077 25.8563 301.937 25.7513 301.83 25.63C301.727 25.5087 301.676 25.357 301.676 25.175C301.676 25.0303 301.706 24.8973 301.767 24.776C301.832 24.65 301.923 24.5403 302.04 24.447C302.161 24.3537 302.306 24.2813 302.474 24.23C302.642 24.174 302.831 24.146 303.041 24.146C303.284 24.146 303.494 24.174 303.671 24.23C303.848 24.2813 304 24.3397 304.126 24.405C304.257 24.4657 304.366 24.5217 304.455 24.573C304.544 24.6243 304.623 24.65 304.693 24.65ZM311.702 24.706C311.739 24.678 311.776 24.6383 311.814 24.587L312.143 24.139Q311.911 23.9079 311.644 23.7325Q311.401 23.5733 311.128 23.46C310.75 23.2967 310.311 23.215 309.812 23.215C309.275 23.215 308.799 23.306 308.384 23.488C307.973 23.67 307.625 23.9243 307.341 24.251C307.061 24.573 306.846 24.958 306.697 25.406C306.552 25.854 306.48 26.3417 306.48 26.869C306.48 27.4477 306.559 27.9633 306.718 28.416C306.876 28.8687 307.096 29.2513 307.376 29.564C307.656 29.872 307.985 30.1077 308.363 30.271C308.745 30.4343 309.158 30.516 309.602 30.516C309.858 30.516 310.11 30.495 310.358 30.453C310.605 30.411 310.841 30.3457 311.065 30.257C311.293 30.1637 311.506 30.0493 311.702 29.914C311.898 29.7787 312.073 29.6153 312.227 29.424L311.877 28.969C311.821 28.8897 311.741 28.85 311.639 28.85Q311.513 28.85 311.38 28.962C311.296 29.032 311.188 29.1113 311.058 29.2C310.932 29.2887 310.771 29.3703 310.575 29.445C310.379 29.515 310.129 29.55 309.826 29.55C309.508 29.55 309.221 29.4917 308.965 29.375C308.713 29.2537 308.496 29.081 308.314 28.857C308.136 28.6283 307.999 28.3483 307.901 28.017C307.803 27.681 307.754 27.2983 307.754 26.869C307.754 26.4583 307.798 26.0873 307.887 25.756Q308.027 25.259 308.293 24.909C308.475 24.6757 308.699 24.4983 308.965 24.377C309.231 24.251 309.539 24.188 309.889 24.188C310.15 24.188 310.369 24.2183 310.547 24.279C310.729 24.335 310.88 24.398 311.002 24.468C311.128 24.538 311.233 24.6033 311.317 24.664Q311.443 24.748 311.548 24.748Q311.646 24.748 311.702 24.706ZM335.062 29.914C335.277 29.774 335.461 29.6107 335.615 29.424L335.265 28.969C335.209 28.8897 335.13 28.85 335.027 28.85C334.948 28.85 334.852 28.8873 334.74 28.962C334.633 29.032 334.497 29.109 334.334 29.193C334.171 29.277 333.975 29.3563 333.746 29.431Q333.41 29.536 332.941 29.536C332.605 29.536 332.302 29.4823 332.031 29.375C331.76 29.263 331.527 29.0973 331.331 28.878C331.135 28.654 330.981 28.3763 330.869 28.045C330.762 27.7137 330.701 27.324 330.687 26.876L335.426 26.876C335.543 26.876 335.622 26.8433 335.664 26.778C335.706 26.7127 335.727 26.582 335.727 26.386C335.727 25.882 335.652 25.434 335.503 25.042C335.354 24.6453 335.146 24.314 334.88 24.048C334.619 23.7773 334.306 23.572 333.942 23.432C333.583 23.2873 333.191 23.215 332.766 23.215C332.253 23.215 331.791 23.306 331.38 23.488C330.969 23.6653 330.622 23.9127 330.337 24.23C330.052 24.5427 329.833 24.9137 329.679 25.343C329.53 25.7723 329.455 26.2343 329.455 26.729C329.455 27.3403 329.539 27.8817 329.707 28.353C329.875 28.8243 330.108 29.221 330.407 29.543C330.71 29.8603 331.067 30.103 331.478 30.271C331.893 30.4343 332.346 30.516 332.836 30.516C333.093 30.516 333.352 30.4927 333.613 30.446C333.874 30.404 334.126 30.3387 334.369 30.25C334.616 30.1613 334.847 30.0493 335.062 29.914ZM291.012 30.418L291.012 23.327L289.766 23.327L289.766 28.549C289.496 28.857 289.199 29.0997 288.877 29.277C288.56 29.4497 288.217 29.536 287.848 29.536C287.344 29.536 286.969 29.389 286.721 29.095C286.479 28.801 286.357 28.3857 286.357 27.849L286.357 23.327L285.111 23.327L285.111 27.849C285.111 28.2503 285.16 28.6167 285.258 28.948C285.361 29.2793 285.513 29.5617 285.713 29.795C285.914 30.0283 286.161 30.2103 286.455 30.341C286.754 30.467 287.097 30.53 287.484 30.53C287.979 30.53 288.418 30.4273 288.8 30.222Q288.829 30.2062 288.857 30.19Q289.397 29.8814 289.836 29.396L289.934 30.159C289.981 30.3317 290.093 30.418 290.27 30.418L291.012 30.418ZM319.98 30.418L319.98 23.327L318.734 23.327L318.734 30.418L319.98 30.418ZM334.481 25.308C334.565 25.546 334.607 25.8097 334.607 26.099L330.729 26.099C330.813 25.483 331.028 25.0023 331.373 24.657C331.723 24.307 332.197 24.132 332.794 24.132Q333.221 24.132 333.557 24.279C333.781 24.3723 333.97 24.5077 334.124 24.685C334.283 24.8577 334.402 25.0653 334.481 25.308ZM294.99 29.361C294.719 29.235 294.47 29.018 294.241 28.71L294.241 25.28C294.498 24.9393 294.775 24.6757 295.074 24.489C295.377 24.3023 295.732 24.209 296.138 24.209C296.721 24.209 297.169 24.4143 297.482 24.825C297.799 25.231 297.958 25.868 297.958 26.736Q297.958 28.136 297.426 28.843C297.071 29.3143 296.56 29.55 295.893 29.55C295.566 29.55 295.265 29.487 294.99 29.361ZM324.029 29.361C323.758 29.235 323.509 29.018 323.28 28.71L323.28 25.28C323.537 24.9393 323.814 24.6757 324.113 24.489C324.416 24.3023 324.771 24.209 325.177 24.209C325.76 24.209 326.208 24.4143 326.521 24.825C326.838 25.231 326.997 25.868 326.997 26.736Q326.997 28.136 326.465 28.843C326.11 29.3143 325.599 29.55 324.932 29.55C324.605 29.55 324.304 29.487 324.029 29.361Z" fill="#FFFFFF" fill-opacity="1.000000" fill-rule="evenodd"/>
	<g opacity="0.671000">
		<path id="Enter Your Email" d="M121.14 30.418L121.14 20.107L119.894 20.107L119.894 30.418L121.14 30.418ZM117.994 21.444C118.045 21.3367 118.071 21.2223 118.071 21.101C118.071 20.9797 118.045 20.8653 117.994 20.758C117.947 20.646 117.882 20.5503 117.798 20.471Q117.772 20.4431 117.743 20.418Q117.642 20.3295 117.511 20.275Q117.465 20.255 117.417 20.2408Q117.298 20.205 117.168 20.205Q117.038 20.205 116.918 20.2408Q116.871 20.255 116.825 20.275C116.722 20.3217 116.631 20.387 116.552 20.471C116.473 20.5503 116.41 20.646 116.363 20.758C116.316 20.8653 116.293 20.9797 116.293 21.101C116.293 21.2223 116.316 21.3367 116.363 21.444C116.41 21.5467 116.473 21.64 116.552 21.724C116.631 21.8033 116.722 21.8663 116.825 21.913C116.932 21.9597 117.047 21.983 117.168 21.983Q117.298 21.983 117.417 21.9472Q117.465 21.9329 117.511 21.913C117.623 21.8663 117.719 21.8033 117.798 21.724C117.882 21.64 117.947 21.5467 117.994 21.444ZM29.462 30.418L29.469 29.312L24.639 29.312L24.639 25.889L28.545 25.889L28.545 24.825L24.639 24.825L24.639 21.493L29.462 21.493L29.462 20.387L23.281 20.387L23.281 30.418L29.462 30.418ZM62.8536 30.418L62.8536 26.421L66.5286 20.387L65.3316 20.387C65.215 20.387 65.1193 20.4197 65.0446 20.485C64.97 20.5503 64.9116 20.6227 64.8696 20.702L62.5806 24.601C62.5013 24.7643 62.429 24.9183 62.3636 25.063C62.2983 25.203 62.24 25.3453 62.1886 25.49C62.1373 25.3453 62.0766 25.203 62.0066 25.063C61.9366 24.9183 61.8596 24.7643 61.7756 24.601L59.4796 20.702C59.4283 20.6087 59.3676 20.534 59.2976 20.478C59.2276 20.4173 59.132 20.387 59.0106 20.387L57.8206 20.387L61.4956 26.421L61.4956 30.418L62.8536 30.418ZM96.6046 30.418L96.6116 29.312L91.7816 29.312L91.7816 25.889L95.6876 25.889L95.6876 24.825L91.7816 24.825L91.7816 21.493L96.6046 21.493L96.6046 20.387L90.4236 20.387L90.4236 30.418L96.6046 30.418ZM39.4686 30.061C39.7719 30.3737 40.2036 30.53 40.7636 30.53C41.0856 30.53 41.3983 30.474 41.7016 30.362C42.0049 30.2453 42.2639 30.0867 42.4786 29.886L42.1146 29.291C42.0633 29.2117 42.0049 29.172 41.9396 29.172C41.9023 29.172 41.8579 29.1907 41.8066 29.228C41.7599 29.2607 41.7016 29.298 41.6316 29.34C41.5616 29.382 41.4776 29.4217 41.3796 29.459C41.2863 29.4917 41.1743 29.508 41.0436 29.508Q40.8082 29.508 40.6321 29.4058Q40.5517 29.3591 40.4836 29.291C40.3389 29.1463 40.2666 28.9247 40.2666 28.626L40.2666 24.37L42.3176 24.37L42.3176 23.467L40.2666 23.467L40.2666 21.024L39.6366 21.024C39.5573 21.024 39.4919 21.0473 39.4406 21.094C39.3939 21.136 39.3636 21.192 39.3496 21.262L39.0626 23.453L37.9006 23.6L37.9006 24.097C37.9006 24.1903 37.9263 24.2603 37.9776 24.307Q37.9965 24.3224 38.0175 24.3341Q38.0821 24.37 38.1666 24.37L39.0206 24.37L39.0206 28.71C39.0206 29.298 39.1699 29.7483 39.4686 30.061ZM52.9687 23.614C52.642 23.8847 52.3667 24.2627 52.1427 24.748L52.0587 23.67C52.04 23.544 52.005 23.4553 51.9537 23.404C51.9023 23.3527 51.809 23.327 51.6737 23.327L50.9597 23.327L50.9597 30.418L52.2127 30.418L52.2127 25.938C52.3013 25.6953 52.3993 25.4807 52.5067 25.294Q52.6747 25.007 52.8777 24.818C53.0177 24.6873 53.174 24.5893 53.3467 24.524C53.524 24.4587 53.7247 24.426 53.9487 24.426C54.1073 24.426 54.2497 24.44 54.3757 24.468C54.5017 24.496 54.5973 24.51 54.6627 24.51C54.7747 24.51 54.8447 24.4517 54.8727 24.335L54.9637 23.404C54.8563 23.334 54.7327 23.2827 54.5927 23.25C54.4573 23.2173 54.315 23.201 54.1657 23.201C53.6943 23.201 53.2953 23.3387 52.9687 23.614ZM83.7577 23.614C83.4311 23.8847 83.1557 24.2627 82.9317 24.748L82.8477 23.67C82.8291 23.544 82.7941 23.4553 82.7427 23.404C82.6914 23.3527 82.5981 23.327 82.4627 23.327L81.7487 23.327L81.7487 30.418L83.0017 30.418L83.0017 25.938C83.0904 25.6953 83.1884 25.4807 83.2957 25.294C83.4077 25.1027 83.5314 24.944 83.6667 24.818C83.8067 24.6873 83.9631 24.5893 84.1357 24.524C84.313 24.4587 84.5137 24.426 84.7377 24.426C84.8964 24.426 85.0387 24.44 85.1647 24.468C85.2907 24.496 85.3864 24.51 85.4517 24.51C85.5637 24.51 85.6337 24.4517 85.6617 24.335L85.7527 23.404C85.6454 23.334 85.5217 23.2827 85.3817 23.25C85.2464 23.2173 85.104 23.201 84.9547 23.201C84.4834 23.201 84.0844 23.3387 83.7577 23.614ZM110.615 23.481Q109.936 23.761 109.348 24.328L109.572 24.727C109.614 24.7923 109.665 24.8483 109.726 24.895C109.787 24.937 109.859 24.958 109.943 24.958C110.05 24.958 110.158 24.9207 110.265 24.846C110.377 24.7667 110.508 24.6803 110.657 24.587C110.811 24.489 110.991 24.4027 111.196 24.328C111.406 24.2487 111.665 24.209 111.973 24.209C112.43 24.209 112.778 24.3513 113.016 24.636C113.254 24.916 113.373 25.3313 113.373 25.882L113.373 26.435C112.566 26.4537 111.884 26.5283 111.329 26.659C110.774 26.785 110.323 26.9483 109.978 27.149C109.633 27.3497 109.383 27.5807 109.229 27.842C109.075 28.0987 108.998 28.367 108.998 28.647C108.998 28.969 109.049 29.249 109.152 29.487Q109.31 29.8308 109.57 30.0598Q109.574 30.0639 109.579 30.068C109.761 30.222 109.973 30.3387 110.216 30.418C110.459 30.4927 110.718 30.53 110.993 30.53C111.264 30.53 111.509 30.5043 111.728 30.453C111.952 30.4063 112.162 30.3387 112.358 30.25C112.554 30.1567 112.741 30.0447 112.918 29.914C113.095 29.7787 113.277 29.6247 113.464 29.452L113.604 30.124C113.641 30.2407 113.693 30.32 113.758 30.362C113.823 30.3993 113.917 30.418 114.038 30.418L114.591 30.418L114.591 25.882C114.591 25.4853 114.537 25.1213 114.43 24.79C114.323 24.4587 114.164 24.1763 113.954 23.943C113.744 23.7097 113.485 23.5277 113.177 23.397C112.869 23.2663 112.517 23.201 112.12 23.201C111.569 23.201 111.068 23.2943 110.615 23.481ZM32.5417 23.887C32.369 24.027 32.2057 24.1833 32.0517 24.356L31.9537 23.586C31.9117 23.4133 31.802 23.327 31.6247 23.327L30.8757 23.327L30.8757 30.418L32.1287 30.418L32.1287 25.196C32.3993 24.8927 32.6933 24.6523 33.0107 24.475C33.3327 24.2977 33.678 24.209 34.0467 24.209C34.546 24.209 34.917 24.3583 35.1597 24.657C35.407 24.951 35.5307 25.3663 35.5307 25.903L35.5307 30.418L36.7837 30.418L36.7837 25.903C36.7837 25.5017 36.7323 25.1353 36.6297 24.804Q36.4757 24.307 36.1747 23.957C35.9787 23.719 35.7313 23.537 35.4327 23.411C35.1387 23.2803 34.798 23.215 34.4107 23.215C34.1587 23.215 33.923 23.243 33.7037 23.299C33.489 23.3503 33.2837 23.4273 33.0877 23.53C32.8963 23.628 32.7143 23.747 32.5417 23.887ZM48.7642 29.914C48.9788 29.774 49.1632 29.6107 49.3172 29.424L48.9672 28.969C48.9112 28.8897 48.8318 28.85 48.7292 28.85C48.6498 28.85 48.5542 28.8873 48.4422 28.962Q48.2812 29.067 48.0362 29.193C47.8728 29.277 47.6768 29.3563 47.4482 29.431C47.2242 29.501 46.9558 29.536 46.6432 29.536C46.3072 29.536 46.0038 29.4823 45.7332 29.375C45.4625 29.263 45.2292 29.0973 45.0332 28.878C44.8372 28.654 44.6832 28.3763 44.5712 28.045C44.4638 27.7137 44.4032 27.324 44.3892 26.876L49.1282 26.876C49.2448 26.876 49.3242 26.8433 49.3662 26.778Q49.4292 26.68 49.4292 26.386C49.4292 25.882 49.3545 25.434 49.2052 25.042C49.0558 24.6453 48.8482 24.314 48.5822 24.048C48.3208 23.7773 48.0082 23.572 47.6442 23.432C47.2848 23.2873 46.8928 23.215 46.4682 23.215Q45.6982 23.215 45.0822 23.488C44.6715 23.6653 44.3238 23.9127 44.0392 24.23C43.7545 24.5427 43.5352 24.9137 43.3812 25.343C43.2318 25.7723 43.1572 26.2343 43.1572 26.729C43.1572 27.3403 43.2412 27.8817 43.4092 28.353C43.5772 28.8243 43.8105 29.221 44.1092 29.543C44.4125 29.8603 44.7695 30.103 45.1802 30.271C45.5955 30.4343 46.0482 30.516 46.5382 30.516C46.7948 30.516 47.0538 30.4927 47.3152 30.446C47.5765 30.404 47.8285 30.3387 48.0712 30.25C48.3185 30.1613 48.5495 30.0493 48.7642 29.914ZM70.3877 23.474C69.9724 23.3013 69.5057 23.215 68.9877 23.215C68.4651 23.215 67.9937 23.3013 67.5737 23.474C67.1584 23.6467 66.8037 23.8917 66.5097 24.209C66.2157 24.5263 65.9894 24.9113 65.8307 25.364Q65.5997 26.036 65.5997 26.869Q65.5997 27.709 65.8307 28.381C65.9894 28.829 66.2157 29.2117 66.5097 29.529C66.8037 29.8463 67.1584 30.0913 67.5737 30.264C67.9937 30.432 68.4651 30.516 68.9877 30.516C69.5057 30.516 69.9724 30.432 70.3877 30.264C70.8031 30.0913 71.1577 29.8463 71.4517 29.529C71.7457 29.2117 71.9697 28.829 72.1237 28.381C72.2824 27.933 72.3617 27.429 72.3617 26.869C72.3617 26.3137 72.2824 25.812 72.1237 25.364C71.9697 24.9113 71.7457 24.5263 71.4517 24.209C71.1577 23.8917 70.8031 23.6467 70.3877 23.474ZM98.0182 23.327L98.0182 30.418L99.2712 30.418L99.2712 25.133C99.4906 24.8483 99.7309 24.6243 99.9922 24.461Q100.199 24.3281 100.425 24.2653Q100.628 24.209 100.846 24.209C101.285 24.209 101.619 24.349 101.847 24.629C102.076 24.909 102.19 25.3337 102.19 25.903L102.19 30.418L103.443 30.418L103.443 25.903C103.443 25.623 103.483 25.378 103.562 25.168C103.646 24.9533 103.758 24.776 103.898 24.636C104.038 24.496 104.199 24.391 104.381 24.321C104.568 24.2463 104.764 24.209 104.969 24.209Q105.488 24.209 105.823 24.4573Q105.931 24.5373 106.019 24.643C106.262 24.9277 106.383 25.3477 106.383 25.903L106.383 30.418L107.636 30.418L107.636 25.903C107.636 25.4737 107.583 25.0933 107.475 24.762Q107.314 24.258 107.006 23.915C106.806 23.6863 106.558 23.5137 106.264 23.397C105.975 23.2757 105.644 23.215 105.27 23.215C105.037 23.215 104.806 23.243 104.577 23.299C104.353 23.355 104.141 23.4437 103.94 23.565C103.74 23.6863 103.558 23.8403 103.394 24.027C103.236 24.2137 103.105 24.4353 103.002 24.692C102.872 24.2393 102.657 23.88 102.358 23.614C102.064 23.348 101.679 23.215 101.203 23.215C100.774 23.215 100.396 23.3177 100.069 23.523C99.7426 23.7283 99.4486 23.992 99.1872 24.314L99.0963 23.586C99.0543 23.4133 98.9446 23.327 98.7673 23.327L98.0182 23.327ZM79.7731 30.418L79.7731 23.327L78.5271 23.327L78.5271 28.549C78.2564 28.857 77.9601 29.0997 77.6381 29.277C77.3207 29.4497 76.9777 29.536 76.6091 29.536C76.1051 29.536 75.7294 29.389 75.4821 29.095C75.2394 28.801 75.1181 28.3857 75.1181 27.849L75.1181 23.327L73.8721 23.327L73.8721 27.849C73.8721 28.2503 73.9211 28.6167 74.0191 28.948C74.1217 29.2793 74.2734 29.5617 74.4741 29.795C74.6747 30.0283 74.9221 30.2103 75.2161 30.341C75.5147 30.467 75.8577 30.53 76.2451 30.53C76.7397 30.53 77.1784 30.4273 77.5611 30.222Q77.5898 30.2062 77.6183 30.19Q78.1582 29.8814 78.5971 29.396L78.6951 30.159C78.7417 30.3317 78.8537 30.418 79.0311 30.418L79.7731 30.418ZM117.805 30.418L117.805 23.327L116.559 23.327L116.559 30.418L117.805 30.418ZM48.1832 25.308C48.2672 25.546 48.3092 25.8097 48.3092 26.099L44.4312 26.099C44.5152 25.483 44.7298 25.0023 45.0752 24.657C45.4252 24.307 45.8988 24.132 46.4962 24.132Q46.9232 24.132 47.2592 24.279C47.4832 24.3723 47.6722 24.5077 47.8262 24.685C47.9848 24.8577 48.1038 25.0653 48.1832 25.308ZM70.5557 28.843C70.2104 29.3097 69.6877 29.543 68.9877 29.543Q68.2059 29.543 67.7151 29.1651Q67.538 29.0287 67.3987 28.843C67.0534 28.3717 66.8807 27.716 66.8807 26.876C66.8807 26.456 66.9227 26.0803 67.0067 25.749C67.0954 25.413 67.2261 25.1307 67.3987 24.902C67.576 24.6733 67.7954 24.4983 68.0567 24.377C68.3227 24.2557 68.6331 24.195 68.9877 24.195C69.6877 24.195 70.2104 24.4307 70.5557 24.902C70.9011 25.3733 71.0737 26.0313 71.0737 26.876C71.0737 27.716 70.9011 28.3717 70.5557 28.843ZM111.903 27.366C112.309 27.2913 112.799 27.2447 113.373 27.226L113.373 28.696C113.233 28.8453 113.088 28.9783 112.939 29.095C112.794 29.2117 112.64 29.312 112.477 29.396C112.318 29.48 112.148 29.5453 111.966 29.592C111.784 29.634 111.583 29.655 111.364 29.655C111.201 29.655 111.047 29.6363 110.902 29.599C110.762 29.557 110.638 29.494 110.531 29.41C110.428 29.3213 110.347 29.2093 110.286 29.074C110.225 28.9387 110.195 28.7777 110.195 28.591C110.195 28.395 110.251 28.2177 110.363 28.059C110.48 27.9003 110.664 27.7627 110.916 27.646C111.173 27.5293 111.502 27.436 111.903 27.366Z" fill="#222224" fill-opacity="1.000000" fill-rule="evenodd"/>
	</g>
</svg>
